<mxfile host="app.diagrams.net" modified="2024-07-11T09:51:41.500Z" agent="Mozilla/5.0 (Macintosh; Intel Mac OS X 10_15_7) AppleWebKit/537.36 (KHTML, like Gecko) Chrome/124.0.0.0 Whale/3.26.244.21 Safari/537.36" etag="GfZ7DI1-RGhTZfLPyoi6" version="24.6.4" type="device">
  <diagram id="C5RBs43oDa-KdzZeNtuy" name="Page-1">
    <mxGraphModel dx="1409" dy="970" grid="1" gridSize="10" guides="1" tooltips="1" connect="1" arrows="1" fold="1" page="1" pageScale="1" pageWidth="827" pageHeight="1169" math="0" shadow="0">
      <root>
        <mxCell id="WIyWlLk6GJQsqaUBKTNV-0" />
        <mxCell id="WIyWlLk6GJQsqaUBKTNV-1" parent="WIyWlLk6GJQsqaUBKTNV-0" />
        <mxCell id="E6NcGJ8uHg528YLHbERM-0" value="시작" style="ellipse;whiteSpace=wrap;html=1;" parent="WIyWlLk6GJQsqaUBKTNV-1" vertex="1">
          <mxGeometry x="205" y="110" width="90" height="60" as="geometry" />
        </mxCell>
        <mxCell id="E6NcGJ8uHg528YLHbERM-34" value="종료" style="ellipse;whiteSpace=wrap;html=1;" parent="WIyWlLk6GJQsqaUBKTNV-1" vertex="1">
          <mxGeometry x="205" y="640" width="90" height="60" as="geometry" />
        </mxCell>
        <mxCell id="N5_WmUoMu1D_pGKbQtwv-4" value="icecream body 반복(1 to 8)" style="swimlane;whiteSpace=wrap;html=1;startSize=20;" vertex="1" parent="WIyWlLk6GJQsqaUBKTNV-1">
          <mxGeometry x="153.83" y="220" width="192.35" height="160" as="geometry">
            <mxRectangle x="175" y="210" width="50" height="40" as="alternateBounds" />
          </mxGeometry>
        </mxCell>
        <mxCell id="E6NcGJ8uHg528YLHbERM-2" value="***********&lt;div&gt;출력&lt;/div&gt;" style="rounded=1;whiteSpace=wrap;html=1;fontSize=12;glass=0;strokeWidth=1;shadow=0;" parent="N5_WmUoMu1D_pGKbQtwv-4" vertex="1">
          <mxGeometry x="36.17" y="70" width="120" height="40" as="geometry" />
        </mxCell>
        <mxCell id="N5_WmUoMu1D_pGKbQtwv-21" value="" style="rounded=0;html=1;jettySize=auto;orthogonalLoop=1;fontSize=11;endArrow=block;endFill=0;endSize=8;strokeWidth=1;shadow=0;labelBackgroundColor=none;edgeStyle=orthogonalEdgeStyle;" edge="1" parent="N5_WmUoMu1D_pGKbQtwv-4">
          <mxGeometry relative="1" as="geometry">
            <mxPoint x="96.17" y="20" as="sourcePoint" />
            <mxPoint x="96.17" y="70" as="targetPoint" />
          </mxGeometry>
        </mxCell>
        <mxCell id="N5_WmUoMu1D_pGKbQtwv-23" value="" style="rounded=0;html=1;jettySize=auto;orthogonalLoop=1;fontSize=11;endArrow=block;endFill=0;endSize=8;strokeWidth=1;shadow=0;labelBackgroundColor=none;edgeStyle=orthogonalEdgeStyle;" edge="1" parent="N5_WmUoMu1D_pGKbQtwv-4">
          <mxGeometry relative="1" as="geometry">
            <mxPoint x="96.01999999999998" y="110" as="sourcePoint" />
            <mxPoint x="96.01999999999998" y="160" as="targetPoint" />
          </mxGeometry>
        </mxCell>
        <mxCell id="N5_WmUoMu1D_pGKbQtwv-11" value="" style="rounded=0;html=1;jettySize=auto;orthogonalLoop=1;fontSize=11;endArrow=block;endFill=0;endSize=8;strokeWidth=1;shadow=0;labelBackgroundColor=none;edgeStyle=orthogonalEdgeStyle;" edge="1" parent="WIyWlLk6GJQsqaUBKTNV-1">
          <mxGeometry relative="1" as="geometry">
            <mxPoint x="250" y="170" as="sourcePoint" />
            <mxPoint x="250" y="220" as="targetPoint" />
          </mxGeometry>
        </mxCell>
        <mxCell id="N5_WmUoMu1D_pGKbQtwv-20" value="" style="rounded=0;html=1;jettySize=auto;orthogonalLoop=1;fontSize=11;endArrow=block;endFill=0;endSize=8;strokeWidth=1;shadow=0;labelBackgroundColor=none;edgeStyle=orthogonalEdgeStyle;" edge="1" parent="WIyWlLk6GJQsqaUBKTNV-1">
          <mxGeometry relative="1" as="geometry">
            <mxPoint x="249.74" y="380" as="sourcePoint" />
            <mxPoint x="249.74" y="430" as="targetPoint" />
          </mxGeometry>
        </mxCell>
        <mxCell id="N5_WmUoMu1D_pGKbQtwv-29" value="icecream bar 반복(1 to 4)" style="swimlane;whiteSpace=wrap;html=1;startSize=20;" vertex="1" parent="WIyWlLk6GJQsqaUBKTNV-1">
          <mxGeometry x="153.82999999999998" y="430" width="192.35" height="160" as="geometry">
            <mxRectangle x="175" y="210" width="50" height="40" as="alternateBounds" />
          </mxGeometry>
        </mxCell>
        <mxCell id="N5_WmUoMu1D_pGKbQtwv-31" value="" style="rounded=0;html=1;jettySize=auto;orthogonalLoop=1;fontSize=11;endArrow=block;endFill=0;endSize=8;strokeWidth=1;shadow=0;labelBackgroundColor=none;edgeStyle=orthogonalEdgeStyle;" edge="1" parent="N5_WmUoMu1D_pGKbQtwv-29">
          <mxGeometry relative="1" as="geometry">
            <mxPoint x="96.17" y="20" as="sourcePoint" />
            <mxPoint x="96.17" y="70" as="targetPoint" />
          </mxGeometry>
        </mxCell>
        <mxCell id="N5_WmUoMu1D_pGKbQtwv-32" value="" style="rounded=0;html=1;jettySize=auto;orthogonalLoop=1;fontSize=11;endArrow=block;endFill=0;endSize=8;strokeWidth=1;shadow=0;labelBackgroundColor=none;edgeStyle=orthogonalEdgeStyle;" edge="1" parent="N5_WmUoMu1D_pGKbQtwv-29">
          <mxGeometry relative="1" as="geometry">
            <mxPoint x="96.01999999999998" y="110" as="sourcePoint" />
            <mxPoint x="96.01999999999998" y="160" as="targetPoint" />
          </mxGeometry>
        </mxCell>
        <mxCell id="E6NcGJ8uHg528YLHbERM-22" value="&lt;div&gt;&amp;nbsp; &amp;nbsp; | |&amp;nbsp; &amp;nbsp;&amp;nbsp;&lt;br&gt;출력&lt;/div&gt;" style="rounded=1;whiteSpace=wrap;html=1;fontSize=12;glass=0;strokeWidth=1;shadow=0;" parent="N5_WmUoMu1D_pGKbQtwv-29" vertex="1">
          <mxGeometry x="36.18000000000001" y="70" width="120" height="40" as="geometry" />
        </mxCell>
        <mxCell id="N5_WmUoMu1D_pGKbQtwv-33" value="" style="rounded=0;html=1;jettySize=auto;orthogonalLoop=1;fontSize=11;endArrow=block;endFill=0;endSize=8;strokeWidth=1;shadow=0;labelBackgroundColor=none;edgeStyle=orthogonalEdgeStyle;" edge="1" parent="WIyWlLk6GJQsqaUBKTNV-1">
          <mxGeometry relative="1" as="geometry">
            <mxPoint x="249.83999999999997" y="590" as="sourcePoint" />
            <mxPoint x="249.83999999999997" y="640" as="targetPoint" />
          </mxGeometry>
        </mxCell>
      </root>
    </mxGraphModel>
  </diagram>
</mxfile>
